<svg xmlns="http://www.w3.org/2000/svg" viewBox="0 0 369.32 62.67"><defs><style>.cls-1{fill:#444;}.cls-2{fill:#d4bb9f;}</style></defs><g id="Ebene_2" data-name="Ebene 2"><g id="Ebene_1-2" data-name="Ebene 1"><polygon class="cls-1" points="57.64 0 0 0 0 57.64 57.64 0"/><polygon class="cls-2" points="5.03 62.67 62.67 62.67 62.67 5.03 5.03 62.67"/><path class="cls-1" d="M87.94,8.81c8.07,0,14.55,2.6,14.55,12.51S96,33.83,87.94,33.83H81.76v-25Zm-.22,3.73H86.21V30.1h1.51c4.9,0,10.17-.75,10.17-8.78S92.62,12.54,87.72,12.54Z"/><path class="cls-1" d="M105.42,24.64c0-5.69,3.66-9.65,9.12-9.65,5.88,0,9.31,4.48,9,10.89H109.64a4.83,4.83,0,0,0,4.94,5.05c2.64,0,4-1.24,4.6-2.9l4,.53c-.87,2.75-3.54,5.73-8.56,5.73C108.51,34.29,105.42,30,105.42,24.64Zm4.22-1.85h9.61a4.56,4.56,0,0,0-4.67-4.6A4.61,4.61,0,0,0,109.64,22.79Z"/><path class="cls-1" d="M138.54,31.54A6.32,6.32,0,0,1,133,34.29,5.93,5.93,0,0,1,128,32.18c-.91-1.17-1.36-2.87-1.36-5.32V15.37h4.18V25.92a6.86,6.86,0,0,0,.61,3.54,3.07,3.07,0,0,0,2.9,1.36c3.09,0,4.18-2.53,4.18-5.88V15.37h4.19V33.83h-4.19Z"/><path class="cls-1" d="M148.09,10h4.19v5.36H156v3.2h-3.76v9.57c0,1.92.45,2.38,2.22,2.38H156v3.31H153c-4,0-4.86-1.09-4.86-4.93V18.57H145.3v-3.2h2.79Z"/><path class="cls-1" d="M170.39,21.06c-.41-1.81-2.07-2.9-4.41-2.9-1.88,0-3.46.67-3.46,1.92s1.13,1.81,2.86,2.18l2.19.46c3.77.82,7,1.88,7,5.5,0,3.92-3.69,6.07-8.07,6.07-4.86,0-8-2.75-8.36-6.11l4.07-.6a4.11,4.11,0,0,0,4.44,3.54c2.3,0,3.81-.83,3.81-2.34s-1.62-2-3.54-2.45l-2.45-.52c-3.24-.68-5.88-2-5.88-5.47s3.5-5.35,7.73-5.35c3.88,0,7.31,1.92,8,5.54Z"/><path class="cls-1" d="M194.27,21.32l-4,.57a4.19,4.19,0,0,0-4.37-3.55c-2.71,0-4.75,2.08-4.75,6.26s2.08,6.33,4.75,6.33a4.26,4.26,0,0,0,4.49-3.58l4.07.53c-.94,4.11-4.49,6.41-8.63,6.41-5.69,0-9-4-9-9.65S180.17,15,186,15C190.16,15,193.48,17.44,194.27,21.32Z"/><path class="cls-1" d="M209.66,23.47c0-2-.18-3.32-1-4.15a3.56,3.56,0,0,0-2.53-.86c-3.2,0-4.37,2.41-4.37,5.8v9.57h-4.18v-25h4.18v8.86A6.43,6.43,0,0,1,207.44,15c2.38,0,4.15.79,5.2,2.3a8.86,8.86,0,0,1,1.21,5.12V33.83h-4.19Z"/><path class="cls-1" d="M217.1,24.64c0-5.69,3.65-9.65,9.12-9.65,5.88,0,9.31,4.48,9,10.89H221.32a4.82,4.82,0,0,0,4.93,5.05c2.64,0,4-1.24,4.6-2.9l4,.53c-.86,2.75-3.54,5.73-8.55,5.73C220.19,34.29,217.1,30,217.1,24.64Zm4.22-1.85h9.61a4.81,4.81,0,0,0-9.61,0Z"/><path class="cls-1" d="M252.54,12.62h-8V8.89H265v3.73h-8V33.91h-4.45Z"/><path class="cls-1" d="M263.52,24.72c0-5.69,3.65-9.65,9.12-9.65,5.88,0,9.31,4.48,9,10.89H267.74A4.83,4.83,0,0,0,272.68,31c2.64,0,3.95-1.24,4.6-2.9l4,.53c-.87,2.75-3.54,5.73-8.56,5.73C266.61,34.37,263.52,30.11,263.52,24.72Zm4.22-1.85h9.61a4.56,4.56,0,0,0-4.67-4.6A4.61,4.61,0,0,0,267.74,22.87Z"/><path class="cls-1" d="M289.12,8.89v4.22h-4.19V8.89Zm0,6.56V33.91h-4.19V15.45Z"/><path class="cls-1" d="M297.74,33.91h-4.19v-25h4.19Z"/><path class="cls-1" d="M306.36,8.89V22.72l7-7.27h5l-6.63,6.89,7.12,11.57H314l-5.2-8.55-2.42,2.52v6h-4.18v-25Z"/><path class="cls-1" d="M320.33,21.06c.26-3.65,3.24-6.07,8.1-6.07,5.35,0,7.65,1.93,7.65,7.09,0,1.21-.07,4.3-.07,5.31a53,53,0,0,0,.37,6.52h-3.92l-.11-2.22c-1.17,1.73-3,2.68-6,2.68-4.26,0-6.67-2.87-6.67-6a4.7,4.7,0,0,1,2-4c1.66-1.13,3.92-1.58,6.75-1.92l3.47-.38V21.4c0-2.52-1.51-3.28-3.73-3.28-2.38,0-3.81,1.09-4,3.05Zm11.76,4-3.51.38c-3.16.34-4.56,1.21-4.56,2.9s1.25,2.72,3.24,2.72a4.51,4.51,0,0,0,4.83-4.86Z"/><path class="cls-1" d="M352,31.62a6.34,6.34,0,0,1-5.58,2.75,5.94,5.94,0,0,1-4.94-2.11c-.9-1.17-1.35-2.87-1.35-5.32V15.45h4.18V26a6.87,6.87,0,0,0,.6,3.54,3.08,3.08,0,0,0,2.9,1.36c3.09,0,4.19-2.53,4.19-5.88V15.45h4.18V33.91H352Z"/><path class="cls-1" d="M361.45,14.28c0-4.41,1.66-5.39,6.22-5.39h1.65v3.39h-1.2c-2.07,0-2.49.38-2.49,2.34v.83h3.69v3.2h-3.69V33.91h-4.18V18.65h-2.64v-3.2h2.64Z"/><path class="cls-1" d="M83.84,52.43l4.53-4.91h1.75l-3.73,4,4.16,5.89H88.86l-3.42-4.86-1.6,1.71V57.4H82.43V47.52h1.41Z"/><path class="cls-1" d="M97.08,56.15h5.3V57.4H95.67V47.52h1.41Z"/><path class="cls-1" d="M108.86,47.52v5.95c0,2,.7,2.89,2.59,2.89s2.62-1.06,2.62-3v-5.8h1.41v5.69c0,2.93-1.11,4.37-4,4.37s-4-1.13-4-4.26v-5.8Zm1.55-2v1.37h-1.26V45.54Zm3.17,0v1.37h-1.27V45.54Z"/><path class="cls-1" d="M130,50.36l-1.37.2a2.75,2.75,0,0,0-2.84-2c-1.77,0-3.16,1.33-3.16,3.89s1.3,3.91,3.16,3.91c1.34,0,2.94-.52,2.94-2.59v-.24h-2.65V52.28h4V57.4h-1.12l-.05-1.26a3.56,3.56,0,0,1-3.17,1.44c-2.89,0-4.54-2.08-4.54-5.13s1.84-5.11,4.66-5.11A4,4,0,0,1,130,50.36Z"/><path class="cls-1" d="M136.35,47.52h6.8v1.25h-5.38v2.92h5.07v1.25h-5.07v3.21h5.38V57.4h-6.8Z"/><path class="cls-1" d="M152.71,53.34h-2.44v4h-1.41V47.52h3.07c2.43,0,4.16.49,4.16,2.89a2.51,2.51,0,0,1-1.93,2.71l2.27,4.28h-1.57Zm-2.44-4.57V52.1H152c1.47,0,2.62-.11,2.62-1.66s-1.15-1.67-2.62-1.67Z"/><path class="cls-1" d="M177.47,55.79l1.86-8.27h1.47l-2.5,9.88h-1.71l-1.94-8.09-1.9,8.09H171l-2.54-9.88H170L172,55.79l1.86-8.27h1.65Z"/><path class="cls-1" d="M190.27,57.58c-2.87,0-4.68-2.1-4.68-5.12s1.93-5.12,4.71-5.12S195,49.29,195,52.46,193.06,57.58,190.27,57.58Zm0-9c-1.83,0-3.26,1.37-3.26,3.9s1.43,3.9,3.26,3.9,3.26-1.37,3.26-3.9S192.12,48.56,190.29,48.56Z"/><path class="cls-1" d="M209,47.52V57.4h-1.41V52.94h-5.27V57.4h-1.41V47.52h1.41v4.17h5.27V47.52Z"/><path class="cls-1" d="M221.41,57.4,216.82,49v8.4h-1.41V47.52h2.07l4.58,8.39V47.52h1.41V57.4Z"/><path class="cls-1" d="M229.88,47.52h6.8v1.25H231.3v2.92h5.07v1.25H231.3v3.21h5.38V57.4h-6.8Z"/><path class="cls-1" d="M248.39,57.4,243.81,49v8.4h-1.42V47.52h2.07L249,55.91V47.52h1.42V57.4Z"/><path class="cls-1" d="M254.49,57.4V55.81h1.59V57.4Z"/></g></g></svg>