
<svg width="40px" height="40px" viewBox="0 0 40 40" version="1.1" xmlns="http://www.w3.org/2000/svg" xmlns:xlink="http://www.w3.org/1999/xlink">
    <g id="Page-1" stroke="none" stroke-width="1" fill="none" fill-rule="evenodd">
        <path d="M40,20.0006839 C40,8.95530554 31.0460623,0 19.9993161,0 C8.95393769,0 0,8.95530554 0,20.0006839 C0,29.9832439 7.31388708,38.2573607 16.8751496,39.7565229 L16.8751496,25.7825804 L11.7963273,25.7825804 L11.7963273,20.0006839 L16.8751496,20.0006839 L16.8751496,15.5934754 C16.8751496,10.5816777 19.8611634,7.81315187 24.4297781,7.81315187 C26.6169682,7.81315187 28.9067469,8.20298875 28.9067469,8.20298875 L28.9067469,13.1258763 L26.3844339,13.1258763 C23.9004206,13.1258763 23.1262182,14.6674418 23.1262182,16.2486749 L23.1262182,20.0006839 L28.6714769,20.0006839 L27.785111,25.7825804 L23.1262182,25.7825804 L23.1262182,39.7565229 C32.6861129,38.2573607 40,29.9832439 40,20.0006839" id="Fill-121" fill="#363636"></path>
    </g>
</svg>