
<svg width="82px" height="71px" viewBox="0 0 82 71" version="1.1" xmlns="http://www.w3.org/2000/svg" xmlns:xlink="http://www.w3.org/1999/xlink">
    <g id="Page-1" stroke="none" stroke-width="1" fill="none" fill-rule="evenodd">
        <g id="Group-25" transform="translate(1.000000, 1.000000)">
            <path d="M80,6.63202314 C80,2.93898614 77.0484127,1.42108547e-14 73.328836,1.42108547e-14 L36.8441799,1.42108547e-14 C33.1243386,1.60770524e-14 30,2.93898614 30,6.63202314 L30,24.9732402 L30,47.018 L34.787037,42.722983 C35.0087302,42.5220604 35.2571429,42.3382096 35.4383598,42.1722186 C37.6243386,40.1724473 38.1835979,39.8528096 41.0349206,39.9111165 C41.4238095,39.9192585 41.887037,39.9221476 42.4513228,39.9221476 L73.328836,39.9221476 C77.0484127,39.9221476 80,36.931158 80,33.2383836 L80,6.63202314 Z" id="Path" stroke="#484848" stroke-width="2"></path>
            <path d="M26.3314786,67.2753896 L6.99999865,67.2753909 C3.1340054,67.275391 -1.47568677e-06,64.1413844 -1.62803894e-06,60.2753911 C-1.62803895e-06,60.275391 -1.62803895e-06,60.2753908 -1.62803894e-06,60.2753906 L4.62298644e-10,34.2753895 C1.31195031e-07,30.4093963 3.13400684,27.2753897 7,27.2753897 L38.932077,27.2753895 C40.13629,27.2753895 41.3126399,26.9130352 42.3081354,26.2354529 L50,20.9999988 L50.1992187,44.1787098" id="Path-31" stroke="#D4BB9F" stroke-width="2" transform="translate(25.099609, 44.137695) scale(1, -1) translate(-25.099609, -44.137695) "></path>
            <path d="M59.809,26.869 C59.809,37.866 51.803,44.554 45.957,49.462 C43.743,51.321 39.622,54.713 39.633,55.98 C39.673,60.95 35.677,64.919 30.706,64.919 C30.681,64.919 30.656,64.919 30.631,64.919 C25.695,64.919 21.673,61.072 21.633,56.127 C21.554,46.38 28.667,40.543 34.383,35.744 C38.868,31.978 41.809,29.328 41.809,26.903 C41.809,21.994 37.815,18 32.906,18 C27.995,18 24,21.994 24,26.903 C24,31.874 19.971,35.903 15,35.903 C10.029,35.903 6,31.874 6,26.903 C6,12.069 18.069,0 32.904,0 C47.74,-0.001 59.809,12.034 59.809,26.869 Z" id="Path"></path>
            <path d="M62.809,15.0025202 C62.809,17.8685262 60.7544208,19.6115332 59.2541622,20.8906418 C58.6859835,21.375129 57.6284116,22.2591421 57.6312345,22.589344 C57.6414997,23.8846108 56.6160065,24.919 55.3402991,24.919 C55.3338833,24.919 55.3274676,24.919 55.3210519,24.919 C54.0543265,24.919 53.0221609,23.9164061 53.0118957,22.6276547 C52.991622,20.08742 54.8170307,18.5661981 56.2839274,17.3154968 C57.4349126,16.3340129 58.1896612,15.6433776 58.1896612,15.0113812 C58.1896612,13.732012 57.1646813,12.6911074 55.9048849,12.6911074 C54.6445753,12.6911074 53.6193388,13.732012 53.6193388,15.0113812 C53.6193388,16.3069087 52.5853768,17.3569349 51.3096694,17.3569349 C50.033962,17.3569349 49,16.3069087 49,15.0113812 C49,11.1453875 52.0972666,8 55.9043717,8 C59.7117334,7.99973938 62.809,11.1362659 62.809,15.0025202 Z" id="Path" fill="#484848" fill-rule="nonzero"></path>
            <circle id="Oval" fill="#484848" cx="55.5" cy="29.5" r="2.5"></circle>
            <circle id="Oval-Copy-7" fill="#D4BB9F" cx="11.5" cy="41.5" r="2.5"></circle>
            <circle id="Oval-Copy-8" fill="#D4BB9F" cx="20.5" cy="41.5" r="2.5"></circle>
        </g>
    </g>
</svg>