
<svg width="39px" height="39px" viewBox="0 0 39 39" version="1.1" xmlns="http://www.w3.org/2000/svg" xmlns:xlink="http://www.w3.org/1999/xlink">
    <g id="Page-1" stroke="none" stroke-width="1" fill="none" fill-rule="evenodd">
        <g id="Group" fill="#363636">
            <path d="M19.4946667,38.9906667 C8.728,38.9906667 -1.42108547e-14,30.2626667 -1.42108547e-14,19.496 C-1.42108547e-14,8.728 8.728,-3.55271368e-15 19.4946667,-3.55271368e-15 C30.2613333,-3.55271368e-15 38.9893333,8.728 38.9893333,19.496 C38.9893333,30.2626667 30.2613333,38.9906667 19.4946667,38.9906667 Z M25.34,12 C24.6013333,12 24,12.6013333 24,13.34 C24,14.08 24.6013333,14.6813333 25.34,14.6813333 C26.0813333,14.6813333 26.6813333,14.08 26.6813333,13.34 C26.6813333,12.6013333 26.0813333,12 25.34,12 Z M19.9613333,23.9026667 C17.9733333,23.9026667 16.356,22.284 16.356,20.296 C16.356,18.308 17.9733333,16.6906667 19.9613333,16.6906667 C21.9506667,16.6906667 23.568,18.308 23.568,20.296 C23.568,22.284 21.9506667,23.9026667 19.9613333,23.9026667 Z M19.9613333,14.6666667 C16.8573333,14.6666667 14.3333333,17.192 14.3333333,20.296 C14.3333333,23.4 16.8573333,25.9253333 19.9613333,25.9253333 C23.0666667,25.9253333 25.5906667,23.4 25.5906667,20.296 C25.5906667,17.192 23.0666667,14.6666667 19.9613333,14.6666667 Z M14.8653333,10.1506667 L23.992,10.1506667 C26.592,10.1506667 28.708,12.2666667 28.708,14.8666667 L28.708,23.992 C28.708,26.5933333 26.592,28.708 23.992,28.708 L14.8653333,28.708 C12.2653333,28.708 10.1506667,26.5933333 10.1506667,23.992 L10.1506667,14.8666667 C10.1506667,12.2666667 12.2653333,10.1506667 14.8653333,10.1506667 Z M23.992,30.8586667 C27.7786667,30.8586667 30.8573333,27.7786667 30.8573333,23.992 L30.8573333,14.8666667 C30.8573333,11.08 27.7786667,8 23.992,8 L14.8653333,8 C11.08,8 8,11.08 8,14.8666667 L8,23.992 C8,27.7786667 11.08,30.8586667 14.8653333,30.8586667 L23.992,30.8586667 Z" id="Combined-Shape"></path>
        </g>
    </g>
</svg>