
<svg width="40px" height="40px" viewBox="0 0 40 40" version="1.1" xmlns="http://www.w3.org/2000/svg" xmlns:xlink="http://www.w3.org/1999/xlink">
    <g id="Page-1" stroke="none" stroke-width="1" fill="none" fill-rule="evenodd">
        <g id="Layer_2" fill="#363636">
            <path d="M20,40 C8.954305,40 0,31.045695 0,20 C0,8.954305 8.954305,0 20,0 C31.045695,0 40,8.954305 40,20 C40,31.045695 31.045695,40 20,40 Z M22.5343134,26.4948387 C22.5343134,24.6993548 21.8363089,23.0670968 20.6927696,21.8206452 C21.8066066,20.5890323 22.4897599,18.9716129 22.4897599,17.2058065 L22.4897599,16.0335484 L22.4749088,16.0335484 C22.4303553,15.7664516 22.1778856,15.5587097 21.8957135,15.5587097 L18.3314351,15.5587097 C18.0344119,15.5587097 17.7967934,15.7664516 17.7522399,16.0335484 L17.6779841,17.2058065 C17.6779841,18.4670968 16.6235517,19.4909677 15.3315008,19.4909677 L15.3315008,19.5058065 L14.1285568,19.5058065 C13.2968919,19.5058065 12.5097804,19.6541935 11.7672224,19.9064516 L11.7672224,9.72709677 C11.7523712,9.41548387 11.4850503,9.1483871 11.1583248,9.1483871 L7.5940464,9.1483871 C7.26732088,9.1483871 7,9.41548387 7,9.72709677 L7,31.2877419 C7,31.5993548 7.26732088,31.8664516 7.5940464,31.8664516 L11.1583248,31.8664516 C11.4850503,31.8664516 11.7523712,31.5993548 11.7523712,31.2877419 L11.7523712,26.4948387 L11.7820735,26.4948387 C11.7820735,25.2335484 12.8365059,24.2096774 14.1285568,24.2096774 L15.3909054,24.2096774 C16.6829564,24.2096774 17.7373887,25.2335484 17.7373887,26.4948387 L17.7373887,27.6670968 L17.7522399,27.6670968 L17.7522399,31.2877419 C17.7522399,31.5993548 18.0195608,31.8664516 18.3462863,31.8664516 L21.9105647,31.8664516 C22.2372902,31.8664516 22.5046111,31.5993548 22.5046111,31.2877419 L22.5640157,27.6670968 L22.5640157,26.4948387 L22.5343134,26.4948387 Z M26.8058924,10.4226756 L28.2167526,11.8175143 C28.4098177,12.0104176 28.7365432,11.9955789 28.9296083,11.8026756 L29.1078222,11.6246111 C29.3008873,11.4317079 29.3008873,11.1349337 29.1078222,10.9420305 L29.0187152,10.8529982 L27.6821108,9.54719176 C26.9395528,8.82009499 25.75146,8.82009499 25.008902,9.53235305 L24.7712835,9.7549337 C24.0435766,10.4820305 24.0435766,11.6542885 24.7861346,12.3665466 L26.2266971,13.7613853 C26.4197622,13.9542885 26.7316366,13.9542885 26.9247017,13.7613853 L27.1029156,13.5833208 C27.2959807,13.4052563 27.3108318,13.0936434 27.1177667,12.9007401 L25.6920554,11.5059014 C25.4544368,11.2684821 25.4544368,10.8826756 25.6920554,10.6452563 L25.9296739,10.4226756 C26.1672925,10.1852563 26.5682738,10.1852563 26.8058924,10.4226756 Z M33.2847526,11.5152192 L31.8738924,12.8952192 C31.6808273,13.0732838 31.6956785,13.3848967 31.8887435,13.5777999 L32.0669575,13.7558644 C32.2600226,13.9487676 32.5718969,13.9487676 32.764962,13.7558644 L32.854069,13.6668322 L34.1906734,12.3610257 C34.9183802,11.6339289 34.9332314,10.4765096 34.1906734,9.7494128 L33.9530548,9.52683215 C33.2104968,8.81457409 32.022404,8.8294128 31.279846,9.54167086 L29.8541346,10.9513483 C29.6759207,11.1442515 29.6759207,11.4410257 29.8689858,11.6339289 L30.0471997,11.8119934 C30.2402648,12.0048967 30.5521391,12.0197354 30.7452042,11.8268322 L32.1709156,10.4319934 C32.4085342,10.1945741 32.8095155,10.1945741 33.047134,10.4319934 L33.2847526,10.6694128 C33.5223712,10.8919934 33.5223712,11.2777999 33.2847526,11.5152192 Z M25.6976662,16.8608065 L27.1085264,15.4956452 C27.3015915,15.3175806 27.2867403,15.0059677 27.0936752,14.8130645 L26.9154613,14.635 C26.7223962,14.4420968 26.4105219,14.4420968 26.2174568,14.635 L26.1283498,14.7240323 L24.7917454,16.0298387 C24.0491874,16.7420968 24.0343363,17.9143548 24.7768943,18.6266129 L25.0145128,18.8491935 C25.7570708,19.5614516 26.9451636,19.5614516 27.6877216,18.8343548 L29.1282842,17.4395161 C29.3064981,17.2466129 29.3064981,16.9498387 29.113433,16.7569355 L28.9352191,16.578871 C28.742154,16.3859677 28.4302796,16.371129 28.2372146,16.5640323 L26.8115032,17.958871 C26.5738846,18.1962903 26.1729033,18.1962903 25.9352847,17.958871 L25.6976662,17.7214516 C25.4600476,17.4840323 25.4600476,17.0982258 25.6976662,16.8608065 Z M32.1690035,17.9756202 L30.7581433,16.5659428 C30.5650782,16.3730395 30.2383527,16.3878782 30.0452876,16.5807815 L29.8670737,16.758846 C29.6740086,16.9517492 29.6740086,17.2485234 29.8670737,17.4414266 L29.9561806,17.5304589 L31.292785,18.8362653 C32.035343,19.5633621 33.2234359,19.5782008 33.9659939,18.851104 L34.2036124,18.6285234 C34.9313193,17.9014266 34.9313193,16.7291686 34.1887613,16.0169105 L32.7481987,14.6220718 C32.5551336,14.4440073 32.2432593,14.4440073 32.0501942,14.6369105 L31.8719803,14.814975 C31.6789152,15.0078782 31.664064,15.3046524 31.8571291,15.4975557 L33.2828405,16.8923944 C33.5353102,17.1298137 33.5204591,17.5156202 33.2828405,17.7530395 L33.0452219,17.9756202 C32.8076034,18.2130395 32.406622,18.2130395 32.1690035,17.9756202 Z" id="Combined-Shape"></path>
        </g>
    </g>
</svg>