
<svg width="40px" height="40px" viewBox="0 0 40 40" version="1.1" xmlns="http://www.w3.org/2000/svg" xmlns:xlink="http://www.w3.org/1999/xlink">
    <g id="Page-1" stroke="none" stroke-width="1" fill="none" fill-rule="evenodd">
        <g id="Group-2-Copy" fill="#363636">
            <path d="M39.5266667,19.692 C39.5266667,30.4586667 30.7986667,39.1866667 20.0306667,39.1866667 C9.264,39.1866667 0.536,30.4586667 0.536,19.692 C0.536,8.92533333 9.264,0.196 20.0306667,0.196 C30.7986667,0.196 39.5266667,8.92533333 39.5266667,19.692 Z M13.7453333,10.0333333 C12.5333333,10.0333333 11.556,11.0133333 11.556,12.2186667 C11.556,13.424 12.5333333,14.4053333 13.7453333,14.4053333 C14.952,14.4053333 15.9293333,13.424 15.9293333,12.2186667 C15.9293333,11.0133333 14.952,10.0333333 13.7453333,10.0333333 Z M11.856,28.1893333 L15.632,28.1893333 L15.632,16.0613333 L11.856,16.0613333 L11.856,28.1893333 Z M17.9973333,16.0613333 L17.9973333,28.1893333 L21.7653333,28.1893333 L21.7653333,22.1893333 C21.7653333,20.6093333 22.0653333,19.076 24.0266667,19.076 C25.96,19.076 25.9866667,20.8853333 25.9866667,22.292 L25.9866667,28.1893333 L29.7533333,28.1893333 L29.7533333,21.5373333 C29.7533333,18.2706667 29.0506667,15.76 25.2333333,15.76 C23.3973333,15.76 22.168,16.7653333 21.6626667,17.72 L21.6133333,17.72 L21.6133333,16.0613333 L17.9973333,16.0613333 Z" id="Combined-Shape"></path>
        </g>
    </g>
</svg>