
<svg width="40px" height="40px" viewBox="0 0 40 40" version="1.1" xmlns="http://www.w3.org/2000/svg" xmlns:xlink="http://www.w3.org/1999/xlink">
    <g id="Page-1" stroke="none" stroke-width="1" fill="none" fill-rule="evenodd">
        <g id="Group-4" fill="#363636">
            <path d="M20,40 C8.954305,40 0,31.045695 0,20 C0,8.954305 8.954305,0 20,0 C31.045695,0 40,8.954305 40,20 C40,31.045695 31.045695,40 20,40 Z M12.2365655,26.0253166 C12.6266192,26.0253166 12.9607152,25.7937901 13.238005,25.3299047 C15.7748624,20.9166111 17.094511,18.619384 17.1975165,18.4373911 L14.6710303,14.1149783 C14.4038761,13.6615453 14.0648773,13.4347826 13.6543168,13.4347826 L9.972048,13.4347826 C9.73544184,13.4347826 9.57157593,13.5103548 9.47898886,13.6614991 C9.36589498,13.8126434 9.37108061,13.9991688 9.49431004,14.2205203 L11.9745969,18.4373911 C11.9846853,18.448121 11.9846853,18.4526998 11.9745969,18.4526998 L8.07679447,25.2243165 C7.97440184,25.4162068 7.97440184,25.5973673 8.07679447,25.7680752 C8.17923423,25.9398932 8.33876307,26.0253166 8.55429672,26.0253166 L12.2365655,26.0253166 Z M29.4376066,8 L25.7247897,8 C25.3243177,8 24.9954073,8.22671647 24.7389543,8.68019566 C19.4699298,17.8498177 16.7429012,22.5962486 16.5579628,22.9181009 L21.7805523,32.3198506 C22.026964,32.7732835 22.3659628,33 22.7972658,33 L26.4792518,33 C26.7051095,33 26.8695883,32.9244278 26.9723109,32.7732835 C27.0747035,32.6014656 27.0698008,32.4149402 26.9569897,32.2137073 L21.7808352,22.9181009 L21.7808352,22.9033934 L29.9153917,8.78601517 C30.0282028,8.57460739 30.0282028,8.38863698 29.9153917,8.22699397 C29.8227575,8.07557216 29.6635115,8 29.4376066,8 Z" id="Combined-Shape"></path>
        </g>
    </g>
</svg>