
<svg width="38px" height="38px" viewBox="0 0 38 38" version="1.1" xmlns="http://www.w3.org/2000/svg" xmlns:xlink="http://www.w3.org/1999/xlink">
    <g id="Page-1" stroke="none" stroke-width="1" fill="none" fill-rule="evenodd">
        <g id="Group-Copy-2" fill="#363636">
            <g id="Group-Copy">
                <path d="M18.8658065,37.7329032 C8.44645161,37.7329032 1.42108547e-14,29.2864516 1.42108547e-14,18.8658065 C1.42108547e-14,8.44645161 8.44645161,-3.55271368e-15 18.8658065,-3.55271368e-15 C29.2851613,-3.55271368e-15 37.7316129,8.44645161 37.7316129,18.8658065 C37.7316129,29.2864516 29.2851613,37.7329032 18.8658065,37.7329032 Z M22.1535484,19.2232258 L16.96,21.7922581 C16.7548387,21.9032258 16.0632258,21.756129 16.0632258,21.523871 L16.0632258,16.2477419 C16.0632258,16.0141935 16.76,15.8658065 16.963871,15.9832258 L21.9367742,18.6890323 C22.1458065,18.8064516 22.3651613,19.1083871 22.1535484,19.2232258 Z M28.9664516,16.1225806 C28.9664516,13.6219355 26.9380645,11.5935484 24.4374194,11.5935484 L12.8516129,11.5935484 C10.3496774,11.5935484 8.32129032,13.6219355 8.32129032,16.1225806 L8.32129032,21.5135484 C8.32129032,24.0167742 10.3496774,26.0451613 12.8516129,26.0451613 L24.4374194,26.0451613 C26.9380645,26.0451613 28.9664516,24.0167742 28.9664516,21.5135484 L28.9664516,16.1225806 Z" id="Combined-Shape"></path>
            </g>
        </g>
    </g>
</svg>